
<svg xmlns="http://www.w3.org/2000/svg" version="1.1" xmlns:xlink="http://www.w3.org/1999/xlink" preserveAspectRatio="none" x="0px" y="0px" width="32px" height="32px" viewBox="0 0 32 32">
<defs>
<g id="Layer0_0_FILL">
<path fill="#FFFFFF" stroke="none" d="
M 32 7.05
Q 32 2 26.95 2
L 5.05 2
Q 0 2 0 7.05
L 0 19.8
Q 0 24.9 5.05 24.9
L 8.8 24.9
Q 8.15 26.15 7.15 27.7 6.9 28.15 6.95 28.65 7.05 29.15 7.4 29.5 7.75 29.85 8.3 29.9 17.85 30.4 20.1 24.8
L 26.95 24.9
Q 32 24.9 32 19.8
L 32 7.05
M 29.15 19.8
Q 29.15 22 26.95 22.05
L 19.15 21.95
Q 18.65 21.95 18.3 22.25 17.9 22.55 17.75 23 16.45 26.7 10.85 27.05 11.8 25.3 12.25 23.9 12.35 23.45 12.25 23.05 12.05 22.6 11.7 22.35 11.35 22.05 10.9 22.05
L 5.05 22.05
Q 2.8 22.05 2.8 19.8
L 2.8 7.05
Q 2.8 4.8 5.05 4.8
L 26.95 4.8
Q 29.15 4.8 29.15 7.05
L 29.15 19.8 Z"/>
</g>
</defs>

<g transform="matrix( 1, 0, 0, 1, 0,0) ">
<use xlink:href="#Layer0_0_FILL"/>
</g>
</svg>
