<svg xmlns="http://www.w3.org/2000/svg">


<style type="text/css">
    path:not(.svg-nocolor){fill:currentColor}
    use:not(.svg-nocolor):visited{color:currentColor}
    use:not(.svg-nocolor):hover{color:currentColor}
    use:not(.svg-nocolor):active{color:currentColor}
</style>


<defs>
<g id="iconAddSmall_0_Layer1_0_FILL">
<path fill="#FFFFFF" fill-opacity="0" stroke="none" d="
M 22 0
L 0 0 0 22 22 22 22 0 Z"/>
</g>

<g id="iconAddSmall_0_Layer0_0_FILL">
<path fill="#FFFFFF" stroke="none" d="
M 22 12
L 22 10 12 10 12 0 10 0 10 10 0 10 0 12 10 12 10 22 12 22 12 12 22 12 Z"/>
</g>

<g id="icon_add_0_Layer1_0_FILL">
<path fill="#FFFFFF" fill-opacity="0" stroke="none" d="
M 0 0
L 0 15 15 15 15 0 0 0 Z"/>
</g>

<g id="icon_add_0_Layer0_0_FILL">
<path fill="#FFFFFF" stroke="none" d="
M 15 8
L 15 7 8 7 8 0 7 0 7 7 0 7 0 8 7 8 7 15 8 15 8 8 15 8 Z"/>
</g>

<g id="arrow_right_0_Layer1_0_FILL">
<path fill="#FFFFFF" stroke="none" d="
M 18 0
L 18 13 36 31 18 51 18 64 49 31 18 0 Z"/>
</g>

<g id="arrow_right_0_Layer0_0_FILL">
<path fill="#FFFFFF" fill-opacity="0" stroke="none" d="
M 64 0
L 0 0 0 64 64 64 64 0 Z"/>
</g>

<g id="chat_single_left_0_Layer1_0_FILL">
<path fill="#FFFFFF" stroke="none" d="
M 60.3 12.65
Q 60.3 3.7 51.35 3.7
L 12.65 3.7
Q 3.7 3.7 3.7 12.65
L 3.7 35.2
Q 3.7 44.15 12.65 44.15
L 19.25 44.15
Q 18.15 46.4 16.4 49.15 15.9 49.9 16.05 50.85 16.15 51.7 16.8 52.35 17.45 52.95 18.4 53 35.3 53.9 39.3 44.05
L 51.35 44.15
Q 60.3 44.15 60.3 35.2
L 60.3 12.65
M 55.3 35.2
Q 55.3 39.1 51.35 39.15
L 37.55 39
Q 36.7 39 36.05 39.5 35.35 40 35.1 40.8 32.8 47.4 22.9 48 24.55 44.85 25.35 42.4 25.6 41.65 25.35 40.9 25.05 40.1 24.4 39.65 23.75 39.15 22.95 39.15
L 12.65 39.15
Q 8.7 39.15 8.7 35.2
L 8.7 12.65
Q 8.7 8.7 12.65 8.7
L 51.35 8.7
Q 55.3 8.7 55.3 12.65
L 55.3 35.2 Z"/>
</g>

<g id="chat_single_left_0_Layer0_0_FILL">
<path fill="#FFFFFF" fill-opacity="0" stroke="none" d="
M 0 0
L 0 64 64 64 64 0 0 0 Z"/>
</g>

<g id="icon_0_Layer1_0_FILL">
<path fill="#FFFFFF" fill-opacity="0.9882352941176471" stroke="none" d="
M 32 4.2
L 27.65 0 15.85 11.8 4.2 0.15 0 4.35 11.65 16 0 27.65 4.2 31.85 15.85 20.2 27.65 32 31.85 27.8 20.2 16.15 32 4.2 Z"/>
</g>

<g id="icon_0_Layer0_0_FILL">
<path fill="#FFFFFF" fill-opacity="0" stroke="none" d="
M 32 0
L 0 0 0 32 32 32 32 0 Z"/>
</g>

<g id="icon_cycle_0_Layer1_0_FILL">
<path fill="#FFFFFF" fill-opacity="0" stroke="none" d="
M 25 0
L 0 0 0 25 25 25 25 0 Z"/>
</g>

<g id="icon_cycle_0_Layer0_0_FILL">
<path fill="#FFFFFF" stroke="none" d="
M 0.05 23
L 2.15 20.9 3.1 20 5 18.15 0 18 0.05 23 Z"/>

<path fill="#FFFFFF" fill-opacity="0.9882352941176471" stroke="none" d="
M 10.55 2
Q 14.85 2 17.9 5.05 21 8.1 21 12.5 21 16.9 17.9 19.95 14.85 23.05 10.55 23.05 6.2 23.05 3.1 20
L 2.15 20.9 1.7 21.4
Q 5.4 25 10.55 25 15.65 25 19.3 21.35 23 17.7 23 12.5 23 7.3 19.3 3.65 15.65 0 10.55 0 5.35 0 1.7 3.65
L 3.1 5.05
Q 6.15 2 10.55 2 Z"/>
</g>

<g id="icon_dots_0_Layer1_0_FILL">
<path fill="#FFFFFF" stroke="none" d="
M 11.5 14.45
Q 10.05 13 8 13 5.95 13 4.45 14.45 3 15.95 3 18 3 20.05 4.45 21.5 5.95 23 8 23 10.05 23 11.5 21.5 13 20.05 13 18 13 15.95 11.5 14.45
M 24 13
Q 21.95 13 20.45 14.45 19 15.95 19 18 19 20.05 20.45 21.5 21.95 23 24 23 26.05 23 27.5 21.5 29 20.05 29 18 29 15.95 27.5 14.45 26.05 13 24 13
M 43.5 21.5
Q 45 20.05 45 18 45 15.95 43.5 14.45 42.05 13 40 13 37.95 13 36.45 14.45 35 15.95 35 18 35 20.05 36.45 21.5 37.95 23 40 23 42.05 23 43.5 21.5 Z"/>
</g>

<g id="icon_dots_0_Layer0_0_FILL">
<path fill="#FFFFFF" fill-opacity="0" stroke="none" d="
M 48 36
L 48 0 0 0 0 36 48 36 Z"/>
</g>

<g id="icon_logout_0_Layer1_0_FILL">
<path fill="#FFFFFF" fill-opacity="0" stroke="none" d="
M 15 15
L 15 0 0 0 0 15 15 15 Z"/>
</g>

<g id="icon_logout_0_Layer0_0_FILL">
<path fill="#FFFFFF" stroke="none" d="
M 8 0
L 7 0
Q 3.78203125 2.49765625 0 4 2.6984375 13.0283203125 7 15
L 8 15
Q 12.2927734375 13.3693359375 15 4 11.1759765625 2.434375 8 0
M 7 3
L 8 3 8 9 7.5 12.3 7 9 7 3 Z"/>
</g>

<g id="icon_search_0_Layer1_0_FILL">
<path fill="#FFFFFF" fill-opacity="0" stroke="none" d="
M 25 0
L 0 0 0 25 25 25 25 0 Z"/>
</g>

<g id="icon_search_0_Layer0_0_FILL">
<path fill="#FFFFFF" fill-opacity="0.9882352941176471" stroke="none" d="
M 25 9.5
Q 25 5.6 22.2 2.8 19.4 0 15.5 0 11.6 0 8.8 2.8 6 5.6 6 9.5 6 12.3 7.45 14.55
L 0 22 2.8 24.85 10.25 17.4
Q 12.55 19 15.5 19 19.4 19 22.2 16.25
L 22.25 16.2
Q 25 13.4 25 9.5
M 23.05 9.5
Q 23.05 12.65 20.8 14.8 18.65 17.05 15.5 17.05 12.4 17.05 10.15 14.8 8 12.65 8 9.5 8 6.45 10.15 4.2
L 10.2 4.15
Q 12.45 2 15.5 2 18.65 2 20.8 4.15 23.05 6.4 23.05 9.5 Z"/>
</g>

<g id="icon_settings_0_Layer1_0_FILL">
<path fill="#FFFFFF" fill-opacity="0" stroke="none" d="
M 0 0
L 0 36 36 36 36 0 0 0 Z"/>
</g>

<g id="icon_settings_0_Layer0_0_FILL">
<path fill="#FFFFFF" stroke="none" d="
M 33.4 11.85
Q 34.5 11.45 34.05 10.25
L 33.5 8.85
Q 33.05 7.4 31.85 7.8
L 28.6 9.3
Q 28.05 8.6 27.4 7.95 25.7 6.25 23.7 5.3
L 24.8 2.5
Q 25.2 1.4 24.05 0.85
L 22.65 0.25
Q 21.3 -0.45 20.8 0.65
L 19.45 4.1
Q 18.6 4 17.75 4 15.3 4 13.15 4.75
L 11.95 2
Q 11.55 0.9 10.35 1.35
L 8.95 1.9
Q 7.5 2.35 7.9 3.55
L 9.4 6.85
Q 8.7 7.35 8.1 7.95 6.35 9.75 5.35 11.85
L 2.5 10.65
Q 1.4 10.25 0.85 11.4
L 0.25 12.8
Q -0.45 14.15 0.65 14.65
L 4.2 16.05
Q 4.1 16.8 4.1 17.65 4.1 20.1 4.85 22.2
L 2 23.45
Q 0.9 23.85 1.35 25.05
L 1.9 26.45
Q 2.35 27.9 3.55 27.5
L 7 26
Q 7.5 26.6 8.1 27.2 9.85 29 11.95 30
L 10.75 32.9
Q 10.35 34 11.5 34.55
L 12.9 35.15
Q 14.25 35.85 14.75 34.75
L 16.15 31.2
Q 16.95 31.3 17.75 31.3 20.2 31.3 22.4 30.55
L 23.6 33.4
Q 24 34.5 25.2 34.05
L 26.6 33.5
Q 28.05 33.05 27.65 31.85
L 26.15 28.45
Q 26.8 27.9 27.4 27.3
L 27.45 27.2
Q 29.1 25.55 30.1 23.6
L 32.9 24.75
Q 34 25.15 34.55 24
L 35.15 22.6
Q 35.85 21.25 34.75 20.75
L 31.3 19.4
Q 31.4 18.55 31.4 17.65 31.4 15.2 30.65 13.05
L 33.4 11.85
M 25.35 9.95
Q 28.6 13.15 28.6 17.65 28.6 22.1 25.35 25.2 22.3 28.45 17.75 28.45 13.3 28.45 10.15 25.2 6.95 22.1 6.95 17.65 6.95 13.2 10.15 10.05
L 10.2 9.95
Q 13.35 6.8 17.75 6.8 22.3 6.8 25.35 9.95
M 24.45 10.85
L 24.45 10.8
Q 21.765234375 8.051953125 17.75 8.05 13.8408203125 8.0521484375 11.05 10.85 8.2013671875 13.6916015625 8.2 17.65 8.1947265625 21.5587890625 11 24.3
L 11.05 24.3
Q 13.7892578125 27.1529296875 17.75 27.15 21.7845703125 27.140234375 24.45 24.25
L 24.45 24.3
Q 27.305078125 21.5763671875 27.3 17.65 27.298828125 13.64140625 24.45 10.85
M 23 12.25
L 23.05 12.25
Q 25.3013671875 14.4767578125 25.3 17.65 25.2947265625 20.7236328125 23.05 22.85 23.0373046875 22.9013671875 23 22.9 20.9154296875 25.159375 17.75 25.15 14.628515625 25.146875 12.45 22.9
L 12.45 22.85
Q 10.205078125 20.7236328125 10.2 17.65 10.1986328125 14.5083984375 12.45 12.25 14.6591796875 10.0478515625 17.75 10.05 20.9162109375 10.0478515625 23 12.25 Z"/>

<path fill="#FFFFFF" fill-opacity="0" stroke="none" d="
M 28.6 17.65
Q 28.6 13.15 25.35 9.95 22.3 6.8 17.75 6.8 13.35 6.8 10.2 9.95
L 10.15 10.05
Q 6.95 13.2 6.95 17.65 6.95 22.1 10.15 25.2 13.3 28.45 17.75 28.45 22.3 28.45 25.35 25.2 28.6 22.1 28.6 17.65
M 24.45 10.8
L 24.45 10.85
Q 27.298828125 13.64140625 27.3 17.65 27.305078125 21.5763671875 24.45 24.3
L 24.45 24.25
Q 21.7845703125 27.140234375 17.75 27.15 13.7892578125 27.1529296875 11.05 24.3
L 11 24.3
Q 8.1947265625 21.5587890625 8.2 17.65 8.2013671875 13.6916015625 11.05 10.85 13.8408203125 8.0521484375 17.75 8.05 21.765234375 8.051953125 24.45 10.8
M 23.05 12.25
L 23 12.25
Q 20.9162109375 10.0478515625 17.75 10.05 14.6591796875 10.0478515625 12.45 12.25 10.1986328125 14.5083984375 10.2 17.65 10.205078125 20.7236328125 12.45 22.85
L 12.45 22.9
Q 14.628515625 25.146875 17.75 25.15 20.9154296875 25.159375 23 22.9 23.0373046875 22.9013671875 23.05 22.85 25.2947265625 20.7236328125 25.3 17.65 25.3013671875 14.4767578125 23.05 12.25 Z"/>
</g>

<g id="star_border_0_Layer1_0_FILL">
<path fill="#FFFFFF" fill-opacity="0" stroke="none" d="
M 0 0
L 0 32 32 32 32 0 0 0 Z"/>
</g>

<g id="star_border_0_Layer0_0_FILL">
<path fill="#FFFFFF" stroke="none" d="
M 31.55 11.85
Q 31.29296875 11.6587890625 30.95 11.65
L 20.45 11.35 17 1.45
Q 16.8890625 1.1671875 16.6 0.95 16.3666015625 0.7951171875 16.05 0.8 15.733203125 0.7953125 15.45 0.95 15.210546875 1.16796875 15.1 1.45
L 11.55 11.35 1.05 11.65
Q 0.75703125 11.6587890625 0.5 11.85 0.246875 12.044140625 0.15 12.35 0.053125 12.6501953125 0.15 12.95 0.2458984375 13.2533203125 0.5 13.45
L 8.85 19.8 5.85 29.95
Q 5.753125 30.2759765625 5.85 30.55 5.96015625 30.86953125 6.2 31.05 6.4705078125 31.2416015625 6.75 31.25 7.1013671875 31.2546875 7.35 31.05
L 16.05 25.05 24.65 31.05
Q 24.9359375 31.2548828125 25.25 31.25 25.566015625 31.2423828125 25.8 31.05 26.0908203125 30.8693359375 26.2 30.55 26.296875 30.2759765625 26.2 29.95
L 23.2 19.8 31.55 13.45
Q 31.80390625 13.2533203125 31.9 12.95 31.9966796875 12.6501953125 31.9 12.35 31.803125 12.044140625 31.55 11.85
M 21.1 19.15
Q 21.0068359375 19.436328125 21.1 19.7
L 23.5 27.8 16.6 23
Q 16.3626953125 22.8484375 16.05 22.85 15.7375 22.8484375 15.45 23
L 8.55 27.8 10.95 19.7
Q 11.0431640625 19.436328125 10.95 19.15 10.8498046875 18.8466796875 10.6 18.65
L 3.95 13.55 12.3 13.35
Q 12.6419921875 13.337890625 12.9 13.15 13.148828125 12.967578125 13.25 12.65
L 16.05 4.8 18.8 12.65
Q 18.90078125 12.9666015625 19.15 13.15 19.4080078125 13.3376953125 19.7 13.35
L 28.1 13.55 21.45 18.65
Q 21.2 18.8466796875 21.1 19.15 Z"/>
</g>

<g id="star_0_Layer1_0_FILL">
<path fill="#FFFFFF" fill-opacity="0" stroke="none" d="
M 32 0
L 0 0 0 32 32 32 32 0 Z"/>
</g>

<g id="star_0_Layer0_0_FILL">
<path fill="#FFFFFF" stroke="none" d="
M 22.05 19.45
L 30.95 12.65 19.75 12.35 16.05 1.8 12.3 12.35 1.1 12.65 10 19.45 6.8 30.25 16.05 23.85 25.25 30.25 22.05 19.45 Z"/>
</g>

<path id="star_0_Layer0_0_1_STROKES" stroke="#FFFFFF" stroke-width="2" stroke-linejoin="round" stroke-linecap="round" d="
M 16.05 1.8
L 19.75 12.35 30.95 12.65 22.05 19.45 25.25 30.25 16.05 23.85 6.8 30.25 10 19.45 1.1 12.65 12.3 12.35 16.05 1.8 Z"/>

<g id="Layer0_0_FILL">
<path fill="#FFFFFF" stroke="none" d="
M 32 7.05
Q 32 2 26.95 2
L 5.05 2
Q 0 2 0 7.05
L 0 19.8
Q 0 24.9 5.05 24.9
L 8.8 24.9
Q 8.15 26.15 7.15 27.7 6.9 28.15 6.95 28.65 7.05 29.15 7.4 29.5 7.75 29.85 8.3 29.9 17.85 30.4 20.1 24.8
L 26.95 24.9
Q 32 24.9 32 19.8
L 32 7.05
M 29.15 19.8
Q 29.15 22 26.95 22.05
L 19.15 21.95
Q 18.65 21.95 18.3 22.25 17.9 22.55 17.75 23 16.45 26.7 10.85 27.05 11.8 25.3 12.25 23.9 12.35 23.45 12.25 23.05 12.05 22.6 11.7 22.35 11.35 22.05 10.9 22.05
L 5.05 22.05
Q 2.8 22.05 2.8 19.8
L 2.8 7.05
Q 2.8 4.8 5.05 4.8
L 26.95 4.8
Q 29.15 4.8 29.15 7.05
L 29.15 19.8 Z"/>
</g>

<g id="user_0_Layer1_0_FILL">
<path fill="#FFFFFF" stroke="none" d="
M 43.7 30.05
Q 48.65 25.05 48.65 18 48.65 10.95 43.7 6 38.7 1 31.65 1 24.6 1 19.65 6 14.65 10.95 14.65 18 14.65 25.05 19.65 30.05 21.25 31.65 23.1 32.75 18.2 34.55 14.2 38.55 8.4 44.3 7.25 52 7.05 57.6 7 63.6 7 63.8 7 64
L 12 64
Q 12.05 57.8 12.35 52 13.4 46.4 17.75 42.1 23.5 36.3 31.65 36.3 39.75 36.3 45.55 42.1 49.85 46.4 50.95 52 51.25 57.8 51.3 64
L 56.3 64
Q 56.3 63.8 56.3 63.6 56.25 57.6 56.05 52 54.85 44.3 49.1 38.55 45.1 34.55 40.2 32.75 42.05 31.65 43.7 30.05
M 31.65 6
Q 36.6 6 40.15 9.55 43.65 13.05 43.65 18 43.65 22.95 40.15 26.5 36.6 30 31.65 30 26.7 30 23.2 26.5 19.65 22.95 19.65 18 19.65 13.05 23.2 9.55 26.7 6 31.65 6 Z"/>
</g>

<g id="user_0_Layer0_0_FILL">
<path fill="#FFFFFF" fill-opacity="0" stroke="none" d="
M 64 0
L 0 0 0 64 64 64 64 0 Z"/>
</g>
</defs><symbol id="icon-add-sm" viewBox="0 0 22 22">


<g transform="matrix( 1, 0, 0, 1, 0,0) ">
<g transform="matrix( 1, 0, 0, 1, 0,0) ">
<use xlink:href="#iconAddSmall_0_Layer1_0_FILL"/>
</g>

<g transform="matrix( 1, 0, 0, 1, 0,0) ">
<use xlink:href="#iconAddSmall_0_Layer0_0_FILL"/>
</g>
</g>
</symbol><symbol id="icon-add" viewBox="0 0 15 15">


<g transform="matrix( 1, 0, 0, 1, 0,0) ">
<g transform="matrix( 1, 0, 0, 1, 0,0) ">
<use xlink:href="#icon_add_0_Layer1_0_FILL"/>
</g>

<g transform="matrix( 1, 0, 0, 1, 0,0) ">
<use xlink:href="#icon_add_0_Layer0_0_FILL"/>
</g>
</g>
</symbol><symbol id="icon-arrow-right" viewBox="0 0 64 64">


<g transform="matrix( 1, 0, 0, 1, 0,0) ">
<g transform="matrix( 1, 0, 0, 1, 0,0) ">
<use xlink:href="#arrow_right_0_Layer1_0_FILL"/>
</g>

<g transform="matrix( 1, 0, 0, 1, 0,0) ">
<use xlink:href="#arrow_right_0_Layer0_0_FILL"/>
</g>
</g>
</symbol><symbol id="icon-chat-single-left" viewBox="0 0 64 64">


<g transform="matrix( 1, 0, 0, 1, 0,0) ">
<g transform="matrix( 1, 0, 0, 1, 0,0) ">
<use xlink:href="#chat_single_left_0_Layer1_0_FILL"/>
</g>

<g transform="matrix( 1, 0, 0, 1, 0,0) ">
<use xlink:href="#chat_single_left_0_Layer0_0_FILL"/>
</g>
</g>
</symbol><symbol id="icon-close" viewBox="0 0 32 32">


<g transform="matrix( 1, 0, 0, 1, 0,0) ">
<g transform="matrix( 1, 0, 0, 1, 0,0) ">
<use xlink:href="#icon_0_Layer1_0_FILL"/>
</g>

<g transform="matrix( 1, 0, 0, 1, 0,0) ">
<use xlink:href="#icon_0_Layer0_0_FILL"/>
</g>
</g>
</symbol><symbol id="icon-cycle" viewBox="0 0 25 25">


<g transform="matrix( 1, 0, 0, 1, 0,0) ">
<g transform="matrix( 1, 0, 0, 1, 0,0) ">
<use xlink:href="#icon_cycle_0_Layer1_0_FILL"/>
</g>

<g transform="matrix( 1, 0, 0, 1, 0,0) ">
<use xlink:href="#icon_cycle_0_Layer0_0_FILL"/>
</g>
</g>
</symbol><symbol id="icon-dots" viewBox="0 0 48 36">


<g transform="matrix( 1, 0, 0, 1, 0,0) ">
<g transform="matrix( 1, 0, 0, 1, 0,0) ">
<use xlink:href="#icon_dots_0_Layer1_0_FILL"/>
</g>

<g transform="matrix( 1, 0, 0, 1, 0,0) ">
<use xlink:href="#icon_dots_0_Layer0_0_FILL"/>
</g>
</g>
</symbol><symbol id="icon-logout" viewBox="0 0 15 15">


<g transform="matrix( 1, 0, 0, 1, 0,0) ">
<g transform="matrix( 1, 0, 0, 1, 0,0) ">
<use xlink:href="#icon_logout_0_Layer1_0_FILL"/>
</g>

<g transform="matrix( 1, 0, 0, 1, 0,0) ">
<use xlink:href="#icon_logout_0_Layer0_0_FILL"/>
</g>
</g>
</symbol><symbol id="icon-search" viewBox="0 0 25 25">


<g transform="matrix( 1, 0, 0, 1, 0,0) ">
<g transform="matrix( 1, 0, 0, 1, 0,0) ">
<use xlink:href="#icon_search_0_Layer1_0_FILL"/>
</g>

<g transform="matrix( 1, 0, 0, 1, 0,0) ">
<use xlink:href="#icon_search_0_Layer0_0_FILL"/>
</g>
</g>
</symbol><symbol id="icon-settings" viewBox="0 0 36 36">


<g transform="matrix( 1, 0, 0, 1, 0.3,0.3) ">
<g transform="matrix( 1, 0, 0, 1, 0,0) ">
<use xlink:href="#icon_settings_0_Layer1_0_FILL"/>
</g>

<g transform="matrix( 1, 0, 0, 1, 0,0) ">
<use xlink:href="#icon_settings_0_Layer0_0_FILL"/>
</g>
</g>
</symbol><symbol id="icon-star-border" viewBox="0 0 32 32">


<g transform="matrix( 1, 0, 0, 1, 0,0) ">
<g transform="matrix( 1, 0, 0, 1, 0,0) ">
<use xlink:href="#star_border_0_Layer1_0_FILL"/>
</g>

<g transform="matrix( 1, 0, 0, 1, 0,0) ">
<use xlink:href="#star_border_0_Layer0_0_FILL"/>
</g>
</g>
</symbol><symbol id="icon-star" viewBox="0 0 32 32">


<g transform="matrix( 1, 0, 0, 1, 0,0) ">
<g transform="matrix( 1, 0, 0, 1, 0,0) ">
<use xlink:href="#star_0_Layer1_0_FILL"/>
</g>

<g transform="matrix( 1, 0, 0, 1, 0,0) ">
<use xlink:href="#star_0_Layer0_0_FILL"/>

<use xlink:href="#star_0_Layer0_0_1_STROKES"/>
</g>
</g>
</symbol><symbol id="icon-timeline" viewBox="0 0 32 32">


<g transform="matrix( 1, 0, 0, 1, 0,0) ">
<use xlink:href="#Layer0_0_FILL"/>
</g>
</symbol><symbol id="icon-user" viewBox="0 0 64 64">


<g transform="matrix( 1, 0, 0, 1, 0,0) ">
<g transform="matrix( 1, 0, 0, 1, 0,0) ">
<use xlink:href="#user_0_Layer1_0_FILL"/>
</g>

<g transform="matrix( 1, 0, 0, 1, 0,0) ">
<use xlink:href="#user_0_Layer0_0_FILL"/>
</g>
</g>
</symbol><symbol id="loader" viewBox="0 0 100 100"><g transform="rotate(0 50 50)">
  <rect x="47.5" y="22.5" rx="4.75" ry="2.25" width="5" height="15" fill="#cecece">
    <animate attributeName="opacity" values="1;0" times="0;1" dur="1s" begin="-0.9s" repeatCount="indefinite"/>
  </rect>
</g><g transform="rotate(36 50 50)">
  <rect x="47.5" y="22.5" rx="4.75" ry="2.25" width="5" height="15" fill="#cecece">
    <animate attributeName="opacity" values="1;0" times="0;1" dur="1s" begin="-0.8s" repeatCount="indefinite"/>
  </rect>
</g><g transform="rotate(72 50 50)">
  <rect x="47.5" y="22.5" rx="4.75" ry="2.25" width="5" height="15" fill="#cecece">
    <animate attributeName="opacity" values="1;0" times="0;1" dur="1s" begin="-0.7s" repeatCount="indefinite"/>
  </rect>
</g><g transform="rotate(108 50 50)">
  <rect x="47.5" y="22.5" rx="4.75" ry="2.25" width="5" height="15" fill="#cecece">
    <animate attributeName="opacity" values="1;0" times="0;1" dur="1s" begin="-0.6s" repeatCount="indefinite"/>
  </rect>
</g><g transform="rotate(144 50 50)">
  <rect x="47.5" y="22.5" rx="4.75" ry="2.25" width="5" height="15" fill="#cecece">
    <animate attributeName="opacity" values="1;0" times="0;1" dur="1s" begin="-0.5s" repeatCount="indefinite"/>
  </rect>
</g><g transform="rotate(180 50 50)">
  <rect x="47.5" y="22.5" rx="4.75" ry="2.25" width="5" height="15" fill="#cecece">
    <animate attributeName="opacity" values="1;0" times="0;1" dur="1s" begin="-0.4s" repeatCount="indefinite"/>
  </rect>
</g><g transform="rotate(216 50 50)">
  <rect x="47.5" y="22.5" rx="4.75" ry="2.25" width="5" height="15" fill="#cecece">
    <animate attributeName="opacity" values="1;0" times="0;1" dur="1s" begin="-0.3s" repeatCount="indefinite"/>
  </rect>
</g><g transform="rotate(252 50 50)">
  <rect x="47.5" y="22.5" rx="4.75" ry="2.25" width="5" height="15" fill="#cecece">
    <animate attributeName="opacity" values="1;0" times="0;1" dur="1s" begin="-0.2s" repeatCount="indefinite"/>
  </rect>
</g><g transform="rotate(288 50 50)">
  <rect x="47.5" y="22.5" rx="4.75" ry="2.25" width="5" height="15" fill="#cecece">
    <animate attributeName="opacity" values="1;0" times="0;1" dur="1s" begin="-0.1s" repeatCount="indefinite"/>
  </rect>
</g><g transform="rotate(324 50 50)">
  <rect x="47.5" y="22.5" rx="4.75" ry="2.25" width="5" height="15" fill="#cecece">
    <animate attributeName="opacity" values="1;0" times="0;1" dur="1s" begin="0s" repeatCount="indefinite"/>
  </rect>
</g></symbol></svg>