<svg xmlns="http://www.w3.org/2000/svg">


<style type="text/css">
    path:not(.svg-nocolor){fill:currentColor}
    use:not(.svg-nocolor):visited{color:currentColor}
    use:not(.svg-nocolor):hover{color:currentColor}
    use:not(.svg-nocolor):active{color:currentColor}
</style>


<defs>
<g id="iconAddSmall_0_Layer1_0_FILL">
<path fill="#FFFFFF" fill-opacity="0" stroke="none" d="
M 22 0
L 0 0 0 22 22 22 22 0 Z"/>
</g>

<g id="iconAddSmall_0_Layer0_0_FILL">
<path fill="#FFFFFF" stroke="none" d="
M 22 12
L 22 10 12 10 12 0 10 0 10 10 0 10 0 12 10 12 10 22 12 22 12 12 22 12 Z"/>
</g>

<g id="icon_add_0_Layer1_0_FILL">
<path fill="#FFFFFF" fill-opacity="0" stroke="none" d="
M 0 0
L 0 15 15 15 15 0 0 0 Z"/>
</g>

<g id="icon_add_0_Layer0_0_FILL">
<path fill="#FFFFFF" stroke="none" d="
M 15 8
L 15 7 8 7 8 0 7 0 7 7 0 7 0 8 7 8 7 15 8 15 8 8 15 8 Z"/>
</g>

<g id="arrow_right_0_Layer1_0_FILL">
<path fill="#FFFFFF" stroke="none" d="
M 18 0
L 18 13 36 31 18 51 18 64 49 31 18 0 Z"/>
</g>

<g id="arrow_right_0_Layer0_0_FILL">
<path fill="#FFFFFF" fill-opacity="0" stroke="none" d="
M 64 0
L 0 0 0 64 64 64 64 0 Z"/>
</g>

<g id="icon_0_Layer1_0_FILL">
<path fill="#FFFFFF" fill-opacity="0.9882352941176471" stroke="none" d="
M 32 4.2
L 27.65 0 15.85 11.8 4.2 0.15 0 4.35 11.65 16 0 27.65 4.2 31.85 15.85 20.2 27.65 32 31.85 27.8 20.2 16.15 32 4.2 Z"/>
</g>

<g id="icon_0_Layer0_0_FILL">
<path fill="#FFFFFF" fill-opacity="0" stroke="none" d="
M 32 0
L 0 0 0 32 32 32 32 0 Z"/>
</g>

<g id="icon_cycle_0_Layer1_0_FILL">
<path fill="#FFFFFF" fill-opacity="0" stroke="none" d="
M 25 0
L 0 0 0 25 25 25 25 0 Z"/>
</g>

<g id="icon_cycle_0_Layer0_0_FILL">
<path fill="#FFFFFF" stroke="none" d="
M 0.05 23
L 2.15 20.9 3.1 20 5 18.15 0 18 0.05 23 Z"/>

<path fill="#FFFFFF" fill-opacity="0.9882352941176471" stroke="none" d="
M 10.55 2
Q 14.85 2 17.9 5.05 21 8.1 21 12.5 21 16.9 17.9 19.95 14.85 23.05 10.55 23.05 6.2 23.05 3.1 20
L 2.15 20.9 1.7 21.4
Q 5.4 25 10.55 25 15.65 25 19.3 21.35 23 17.7 23 12.5 23 7.3 19.3 3.65 15.65 0 10.55 0 5.35 0 1.7 3.65
L 3.1 5.05
Q 6.15 2 10.55 2 Z"/>
</g>

<g id="file_0_Layer1_0_FILL">
<path fill="#FFFFFF" stroke="none" d="
M 44 16
L 56 16 39 0 39 11
Q 39 16 44 16
M 56 18.95
L 41.85 18.95
Q 35.95 18.95 35.95 13.05
L 35.95 0 14 0
Q 9 0 9 5
L 9 59
Q 9 64 14 64
L 51 64
Q 56 64 56 59
L 56 18.95 Z"/>
</g>

<g id="file_0_Layer0_0_FILL">
<path fill="#FFFFFF" fill-opacity="0" stroke="none" d="
M 64 0
L 0 0 0 64 64 64 64 0 Z"/>
</g>

<g id="Layer1_0_FILL">
<path fill="#FFFFFF" stroke="none" d="
M 64 49
L 64 21
Q 64 16 59 16
L 29 16 24 8 5 8 0 16 0 49
Q 0 54 5 54
L 59 54
Q 64 54 64 49
M 47 36
L 47 27 50 27 50 36 59 36 59 39 50 39 50 48 47 48 47 39 38 39 38 36 47 36 Z"/>
</g>

<g id="Layer0_0_FILL">
<path fill="#FFFFFF" fill-opacity="0" stroke="none" d="
M 0 0
L 0 64 64 64 64 0 0 0 Z"/>
</g>

<g id="folder_back_0_Layer1_0_FILL">
<path fill="#FFFFFF" stroke="none" d="
M 64 49
L 64 21
Q 64 16 59 16
L 29 16 24 8 5 8 0 16 0 49
Q 0 54 5 54
L 59 54
Q 64 54 64 49
M 8.5 35
L 18.5 25 21 27.5 13.5 35 21 42.5 18.5 45 8.5 35 Z"/>
</g>

<g id="folder_back_0_Layer0_0_FILL">
<path fill="#FFFFFF" fill-opacity="0" stroke="none" d="
M 0 0
L 0 64 64 64 64 0 0 0 Z"/>
</g>

<g id="folder_0_Layer1_0_FILL">
<path fill="#FFFFFF" stroke="none" d="
M 64 49
L 64 21
Q 64 16 59 16
L 29 16 24 8 5 8 0 16 0 49
Q 0 54 5 54
L 59 54
Q 64 54 64 49 Z"/>
</g>

<g id="folder_0_Layer0_0_FILL">
<path fill="#FFFFFF" fill-opacity="0" stroke="none" d="
M 64 0
L 0 0 0 64 64 64 64 0 Z"/>
</g>

<g id="form_fields_0_Layer1_0_FILL">
<path fill="#FFFFFF" stroke="none" d="
M 64 48
L 64 12
Q 47.958984375 2.084375 31 12 15.9541015625 1.9193359375 0 12
L 0 48
Q 15.95 37.9 31 48 47.95 38.1 64 48
M 0 56
Q 15.95 45.9 31 56 47.95 46.1 64 56
L 64 51
Q 47.95 41.1 31 51 15.95 40.9 0 51
L 0 56 Z"/>
</g>

<g id="form_fields_0_Layer0_0_FILL">
<path fill="#FFFFFF" fill-opacity="0" stroke="none" d="
M 0 0
L 0 64 64 64 64 0 0 0 Z"/>
</g>

<g id="fullscreen_0_Layer1_0_FILL">
<path fill="#FFFFFF" stroke="none" d="
M 4 39
L 0 39 0 64 25 64 25 60 6 60 12 54 10 52 4 58 4 39
M 25 4
L 25 0 0 0 0 25 4 25 4 6 10 12 12 10 6 4 25 4
M 64 39
L 60 39 60 58 54 52 52 54 58 60 39 60 39 64 64 64 64 39
M 64 25
L 64 0 39 0 39 4 58 4 52 10 54 12 60 6 60 25 64 25 Z"/>
</g>

<g id="fullscreen_0_Layer0_0_FILL">
<path fill="#FFFFFF" fill-opacity="0" stroke="none" d="
M 64 0
L 0 0 0 64 64 64 64 0 Z"/>
</g>

<g id="icon_logout_0_Layer1_0_FILL">
<path fill="#FFFFFF" fill-opacity="0" stroke="none" d="
M 15 15
L 15 0 0 0 0 15 15 15 Z"/>
</g>

<g id="icon_logout_0_Layer0_0_FILL">
<path fill="#FFFFFF" stroke="none" d="
M 8 0
L 7 0
Q 3.78203125 2.49765625 0 4 2.6984375 13.0283203125 7 15
L 8 15
Q 12.2927734375 13.3693359375 15 4 11.1759765625 2.434375 8 0
M 7 3
L 8 3 8 9 7.5 12.3 7 9 7 3 Z"/>
</g>

<g id="menu_0_Layer1_0_FILL">
<path fill="#FFFFFF" stroke="none" d="
M 62.8 48.15
Q 61.65 47 60 47
L 4 47
Q 2.35 47 1.15 48.15 0 49.35 0 51
L 0 53
Q 0 54.65 1.15 55.8 2.35 57 4 57
L 60 57
Q 61.65 57 62.8 55.8 64 54.65 64 53
L 64 51
Q 64 49.35 62.8 48.15
M 64 31
Q 64 29.35 62.8 28.15 61.65 27 60 27
L 4 27
Q 2.35 27 1.15 28.15 0 29.35 0 31
L 0 33
Q 0 34.65 1.15 35.8 2.35 37 4 37
L 60 37
Q 61.65 37 62.8 35.8 64 34.65 64 33
L 64 31
M 64 11
Q 64 9.35 62.8 8.15 61.65 7 60 7
L 4 7
Q 2.35 7 1.15 8.15 0 9.35 0 11
L 0 13
Q 0 14.65 1.15 15.8 2.35 17 4 17
L 60 17
Q 61.65 17 62.8 15.8 64 14.65 64 13
L 64 11 Z"/>
</g>

<g id="menu_0_Layer0_0_FILL">
<path fill="#FFFFFF" fill-opacity="0" stroke="none" d="
M 64 64
L 64 0 0 0 0 64 64 64 Z"/>
</g>

<g id="new_window_0_Layer1_0_FILL">
<path fill="#FFFFFF" stroke="none" d="
M 64 5
Q 64 0 59 0
L 5 0
Q 0 0 0 5
L 0 59
Q 0 64 5 64
L 59 64
Q 64 64 64 59
L 64 5
M 56.6 2.6
Q 57.2 2 58 2 58.8 2 59.4 2.6 60 3.2 60 4 60 4.137109375 59.95 4.25 59.8970703125 4.9029296875 59.4 5.4 58.9029296875 5.8970703125 58.25 5.95 58.137109375 6 58 6 57.2 6 56.6 5.4 56 4.8 56 4 56 3.2 56.6 2.6
M 54 4
Q 54 4.15 54 4.3 53.9 4.9 53.4 5.4 52.9 5.9 52.3 6 52.15 6 52 6 51.2 6 50.6 5.4 50 4.8 50 4 50 3.2 50.6 2.6 51.2 2 52 2 52.8 2 53.4 2.6 54 3.2 54 4
M 47.4 2.6
Q 48 3.2 48 4 48 4.15 48 4.3 47.9 4.9 47.4 5.4 46.9 5.9 46.3 6 46.15 6 46 6 45.2 6 44.6 5.4 44 4.8 44 4 44 3.2 44.6 2.6 45.2 2 46 2 46.8 2 47.4 2.6
M 3 61
L 3 8 61 8 61 61 3 61
M 46 36
L 46 32 33 32 33 19 29 19 29 32 16 32 16 36 29 36 29 49 33 49 33 36 46 36 Z"/>
</g>

<g id="new_window_0_Layer0_0_FILL">
<path fill="#FFFFFF" fill-opacity="0" stroke="none" d="
M 64 0
L 0 0 0 64 64 64 64 0 Z"/>
</g>

<g id="icon_photos_0_Layer1_0_FILL">
<path fill="#FFFFFF" fill-opacity="0" stroke="none" d="
M 36 0
L 0 0 0 36 36 36 36 0 Z"/>
</g>

<g id="icon_photos_0_Layer0_0_FILL">
<path fill="#FFFFFF" stroke="none" d="
M 25.05 1.15
Q 23.9 0 22.25 0
L 13.85 0
Q 12.2 0 11 1.15 9.85 2.35 9.85 4 9.85 4.1 9.85 4.2
L 7 4.2
Q 0 4.2 0 11.1
L 0 24.3
Q 0 31.2 7 31.2
L 29 31.2
Q 36 31.2 36 24.3
L 36 11.1
Q 36 4.2 29 4.2
L 26.25 4.2
Q 26.25 4.1 26.25 4 26.25 2.35 25.05 1.15
M 31.5 10.5
Q 30.9 10.5 30.45 10.05 30.05 9.65 30.05 9.05 30.05 8.45 30.45 8 30.9 7.6 31.5 7.6 32.1 7.6 32.5 8 32.95 8.45 32.95 9.05 32.95 9.65 32.5 10.05 32.1 10.5 31.5 10.5
M 27.1 17.25
Q 27.1 21 24.4 23.65 21.75 26.35 18 26.35 14.25 26.35 11.55 23.65 8.9 21 8.9 17.25 8.9 13.5 11.55 10.8 14.25 8.15 18 8.15 21.75 8.15 24.4 10.8 27.1 13.5 27.1 17.25
M 23.15 22.4
Q 25.35 20.3 25.35 17.25 25.35 14.2 23.15 12.05 21.05 9.9 18 9.9 14.95 9.9 12.8 12.05 10.65 14.2 10.65 17.25 10.65 20.3 12.8 22.4 14.95 24.6 18 24.6 21.05 24.6 23.15 22.4
M 22.45 12.75
Q 24.35 14.65 24.35 17.25 24.35 19.85 22.45 21.7 20.6 23.6 18 23.6 15.4 23.6 13.5 21.7 11.65 19.85 11.65 17.25 11.65 14.65 13.5 12.75 15.4 10.9 18 10.9 20.6 10.9 22.45 12.75 Z"/>
</g>

<g id="pin_0_Layer1_0_FILL">
<path fill="#FFFFFF" stroke="none" d="
M 35 47
L 27 47 27 59 31 64 35 59 35 47
M 44 5
L 48 5 48 0 14 0 14 5 18 5 14 38 4 38 4 43 58 43 58 38 48 38 44 5
M 23 5
L 32 5 32 38 20 38 23 5 Z"/>
</g>

<g id="pin_0_Layer0_0_FILL">
<path fill="#FFFFFF" fill-opacity="0" stroke="none" d="
M 64 0
L 0 0 0 64 64 64 64 0 Z"/>
</g>

<g id="preview_0_Layer1_0_FILL">
<path fill="#FFFFFF" stroke="none" d="
M 31.1 15
Q 31.05 15 31 15 11.15 14.9 0 31 11.15 47.1 31 47 31.05 47 31.1 47 32.05 47 33 47 52.85 46.95 64 31 52.85 15.05 33 15 32.05 15 31.1 15
M 51.05 23.7
L 54.05 25.7
Q 54.1 36.75 40.05 42.7 52.4 35.15 51.05 23.7
M 32 21
Q 35.75 21 38.35 23.6 41 26.25 41 30 41 33.75 38.35 36.35 35.75 39 32 39 28.25 39 25.6 36.35 23 33.75 23 30 23 26.25 25.6 23.6 28.25 21 32 21
M 12 24
Q 10.65 35.45 23 43 8.95 37.05 9 26
L 12 24 Z"/>
</g>

<g id="preview_0_Layer0_0_FILL">
<path fill="#FFFFFF" fill-opacity="0" stroke="none" d="
M 64 0
L 0 0 0 64 64 64 64 0 Z"/>
</g>

<g id="iconSave_0_Layer0_0_FILL">
<path fill="#FFFFFF" stroke="none" d="
M 8 16
L 8 21 17 21 17 16 8 16
M 9 20
L 9 17 11 17 11 20 9 20
M 18 12
L 18 4 7 4 7 12 18 12
M 21 21
L 21 4 19 4 19 13 6 13 6 4 4 4 4 21 7 21 7 15 18 15 18 21 21 21 Z"/>
</g>

<g id="icon_settings_0_Layer1_0_FILL">
<path fill="#FFFFFF" fill-opacity="0" stroke="none" d="
M 0 0
L 0 36 36 36 36 0 0 0 Z"/>
</g>

<g id="icon_settings_0_Layer0_0_FILL">
<path fill="#FFFFFF" stroke="none" d="
M 33.4 11.85
Q 34.5 11.45 34.05 10.25
L 33.5 8.85
Q 33.05 7.4 31.85 7.8
L 28.6 9.3
Q 28.05 8.6 27.4 7.95 25.7 6.25 23.7 5.3
L 24.8 2.5
Q 25.2 1.4 24.05 0.85
L 22.65 0.25
Q 21.3 -0.45 20.8 0.65
L 19.45 4.1
Q 18.6 4 17.75 4 15.3 4 13.15 4.75
L 11.95 2
Q 11.55 0.9 10.35 1.35
L 8.95 1.9
Q 7.5 2.35 7.9 3.55
L 9.4 6.85
Q 8.7 7.35 8.1 7.95 6.35 9.75 5.35 11.85
L 2.5 10.65
Q 1.4 10.25 0.85 11.4
L 0.25 12.8
Q -0.45 14.15 0.65 14.65
L 4.2 16.05
Q 4.1 16.8 4.1 17.65 4.1 20.1 4.85 22.2
L 2 23.45
Q 0.9 23.85 1.35 25.05
L 1.9 26.45
Q 2.35 27.9 3.55 27.5
L 7 26
Q 7.5 26.6 8.1 27.2 9.85 29 11.95 30
L 10.75 32.9
Q 10.35 34 11.5 34.55
L 12.9 35.15
Q 14.25 35.85 14.75 34.75
L 16.15 31.2
Q 16.95 31.3 17.75 31.3 20.2 31.3 22.4 30.55
L 23.6 33.4
Q 24 34.5 25.2 34.05
L 26.6 33.5
Q 28.05 33.05 27.65 31.85
L 26.15 28.45
Q 26.8 27.9 27.4 27.3
L 27.45 27.2
Q 29.1 25.55 30.1 23.6
L 32.9 24.75
Q 34 25.15 34.55 24
L 35.15 22.6
Q 35.85 21.25 34.75 20.75
L 31.3 19.4
Q 31.4 18.55 31.4 17.65 31.4 15.2 30.65 13.05
L 33.4 11.85
M 25.35 9.95
Q 28.6 13.15 28.6 17.65 28.6 22.1 25.35 25.2 22.3 28.45 17.75 28.45 13.3 28.45 10.15 25.2 6.95 22.1 6.95 17.65 6.95 13.2 10.15 10.05
L 10.2 9.95
Q 13.35 6.8 17.75 6.8 22.3 6.8 25.35 9.95
M 24.45 10.85
L 24.45 10.8
Q 21.765234375 8.051953125 17.75 8.05 13.8408203125 8.0521484375 11.05 10.85 8.2013671875 13.6916015625 8.2 17.65 8.1947265625 21.5587890625 11 24.3
L 11.05 24.3
Q 13.7892578125 27.1529296875 17.75 27.15 21.7845703125 27.140234375 24.45 24.25
L 24.45 24.3
Q 27.305078125 21.5763671875 27.3 17.65 27.298828125 13.64140625 24.45 10.85
M 23 12.25
L 23.05 12.25
Q 25.3013671875 14.4767578125 25.3 17.65 25.2947265625 20.7236328125 23.05 22.85 23.0373046875 22.9013671875 23 22.9 20.9154296875 25.159375 17.75 25.15 14.628515625 25.146875 12.45 22.9
L 12.45 22.85
Q 10.205078125 20.7236328125 10.2 17.65 10.1986328125 14.5083984375 12.45 12.25 14.6591796875 10.0478515625 17.75 10.05 20.9162109375 10.0478515625 23 12.25 Z"/>

<path fill="#FFFFFF" fill-opacity="0" stroke="none" d="
M 28.6 17.65
Q 28.6 13.15 25.35 9.95 22.3 6.8 17.75 6.8 13.35 6.8 10.2 9.95
L 10.15 10.05
Q 6.95 13.2 6.95 17.65 6.95 22.1 10.15 25.2 13.3 28.45 17.75 28.45 22.3 28.45 25.35 25.2 28.6 22.1 28.6 17.65
M 24.45 10.8
L 24.45 10.85
Q 27.298828125 13.64140625 27.3 17.65 27.305078125 21.5763671875 24.45 24.3
L 24.45 24.25
Q 21.7845703125 27.140234375 17.75 27.15 13.7892578125 27.1529296875 11.05 24.3
L 11 24.3
Q 8.1947265625 21.5587890625 8.2 17.65 8.2013671875 13.6916015625 11.05 10.85 13.8408203125 8.0521484375 17.75 8.05 21.765234375 8.051953125 24.45 10.8
M 23.05 12.25
L 23 12.25
Q 20.9162109375 10.0478515625 17.75 10.05 14.6591796875 10.0478515625 12.45 12.25 10.1986328125 14.5083984375 10.2 17.65 10.205078125 20.7236328125 12.45 22.85
L 12.45 22.9
Q 14.628515625 25.146875 17.75 25.15 20.9154296875 25.159375 23 22.9 23.0373046875 22.9013671875 23.05 22.85 25.2947265625 20.7236328125 25.3 17.65 25.3013671875 14.4767578125 23.05 12.25 Z"/>
</g>

<g id="icon_sourcecode_0_Layer1_0_FILL">
<path fill="#FFFFFF" fill-opacity="0" stroke="none" d="
M 25 25
L 25 0 0 0 0 25 25 25 Z"/>
</g>

<g id="icon_sourcecode_0_Layer0_0_FILL">
<path fill="#FFFFFF" stroke="none" d="
M 25 12.55
Q 25 7.35 21.35 3.7 17.7 0.05 12.5 0.05 7.3 0.05 3.65 3.7 0 7.35 0 12.55 0 17.75 3.65 21.4 7.3 25.05 12.5 25.05 17.7 25.05 21.35 21.4 25 17.75 25 12.55
M 23 11.85
L 23 13.15 15.55 16.35 15.55 15 21.45 12.5 15.55 10.05 15.55 8.7 23 11.85
M 13.6 6.55
L 14.7 6.55 11.4 18.25 10.3 18.25 13.6 6.55
M 9.45 8.7
L 9.45 10.05 3.55 12.5 9.45 15 9.45 16.35 2 13.15 2 11.85 9.45 8.7 Z"/>
</g>

<g id="iconUpload_0_Layer1_0_FILL">
<path fill="#FFFFFF" fill-opacity="0" stroke="none" d="
M 25 0
L 0 0 0 25 25 25 25 0 Z"/>
</g>

<g id="iconUpload_0_Layer0_0_FILL">
<path fill="#FFFFFF" stroke="none" d="
M 6.55 14.05
L 10.05 14.05 10.05 25 15.05 25 15.05 14.05 18.55 14.05 12.55 8.05 6.55 14.05
M 23.05 2.05
L 23.05 17.05 16.05 17.05 16.05 19.05 25 19.05 25 0 0 0 0 19.05 9.05 19.05 9.05 17.05 2.05 17.05 2.05 2.05 23.05 2.05 Z"/>
</g>
</defs><symbol id="icon-add-sm" viewBox="0 0 22 22">


<g transform="matrix( 1, 0, 0, 1, 0,0) ">
<g transform="matrix( 1, 0, 0, 1, 0,0) ">
<use xlink:href="#iconAddSmall_0_Layer1_0_FILL"/>
</g>

<g transform="matrix( 1, 0, 0, 1, 0,0) ">
<use xlink:href="#iconAddSmall_0_Layer0_0_FILL"/>
</g>
</g>
</symbol><symbol id="icon-add" viewBox="0 0 15 15">


<g transform="matrix( 1, 0, 0, 1, 0,0) ">
<g transform="matrix( 1, 0, 0, 1, 0,0) ">
<use xlink:href="#icon_add_0_Layer1_0_FILL"/>
</g>

<g transform="matrix( 1, 0, 0, 1, 0,0) ">
<use xlink:href="#icon_add_0_Layer0_0_FILL"/>
</g>
</g>
</symbol><symbol id="icon-arrow-right" viewBox="0 0 64 64">


<g transform="matrix( 1, 0, 0, 1, 0,0) ">
<g transform="matrix( 1, 0, 0, 1, 0,0) ">
<use xlink:href="#arrow_right_0_Layer1_0_FILL"/>
</g>

<g transform="matrix( 1, 0, 0, 1, 0,0) ">
<use xlink:href="#arrow_right_0_Layer0_0_FILL"/>
</g>
</g>
</symbol><symbol id="icon-close" viewBox="0 0 32 32">


<g transform="matrix( 1, 0, 0, 1, 0,0) ">
<g transform="matrix( 1, 0, 0, 1, 0,0) ">
<use xlink:href="#icon_0_Layer1_0_FILL"/>
</g>

<g transform="matrix( 1, 0, 0, 1, 0,0) ">
<use xlink:href="#icon_0_Layer0_0_FILL"/>
</g>
</g>
</symbol><symbol id="icon-cycle" viewBox="0 0 25 25">


<g transform="matrix( 1, 0, 0, 1, 0,0) ">
<g transform="matrix( 1, 0, 0, 1, 0,0) ">
<use xlink:href="#icon_cycle_0_Layer1_0_FILL"/>
</g>

<g transform="matrix( 1, 0, 0, 1, 0,0) ">
<use xlink:href="#icon_cycle_0_Layer0_0_FILL"/>
</g>
</g>
</symbol><symbol id="icon-file" viewBox="0 0 64 64">


<g transform="matrix( 1, 0, 0, 1, 0,0) ">
<g transform="matrix( 1, 0, 0, 1, 0,0) ">
<use xlink:href="#file_0_Layer1_0_FILL"/>
</g>

<g transform="matrix( 1, 0, 0, 1, 0,0) ">
<use xlink:href="#file_0_Layer0_0_FILL"/>
</g>
</g>
</symbol><symbol id="icon-folder-add" viewBox="0 0 64 64">


<g transform="matrix( 1, 0, 0, 1, 0,0) ">
<use xlink:href="#Layer1_0_FILL"/>
</g>

<g transform="matrix( 1, 0, 0, 1, 0,0) ">
<use xlink:href="#Layer0_0_FILL"/>
</g>
</symbol><symbol id="icon-folder-back" viewBox="0 0 64 64">


<g transform="matrix( 1, 0, 0, 1, 0,0) ">
<g transform="matrix( 1, 0, 0, 1, 0,0) ">
<use xlink:href="#folder_back_0_Layer1_0_FILL"/>
</g>

<g transform="matrix( 1, 0, 0, 1, 0,0) ">
<use xlink:href="#folder_back_0_Layer0_0_FILL"/>
</g>
</g>
</symbol><symbol id="icon-folder" viewBox="0 0 64 64">


<g transform="matrix( 1, 0, 0, 1, 0,0) ">
<g transform="matrix( 1, 0, 0, 1, 0,0) ">
<use xlink:href="#folder_0_Layer1_0_FILL"/>
</g>

<g transform="matrix( 1, 0, 0, 1, 0,0) ">
<use xlink:href="#folder_0_Layer0_0_FILL"/>
</g>
</g>
</symbol><symbol id="icon-form-fields" viewBox="0 0 64 64">


<g transform="matrix( 1, 0, 0, 1, 0,0) ">
<g transform="matrix( 1, 0, 0, 1, 0,0) ">
<use xlink:href="#form_fields_0_Layer1_0_FILL"/>
</g>

<g transform="matrix( 1, 0, 0, 1, 0,0) ">
<use xlink:href="#form_fields_0_Layer0_0_FILL"/>
</g>
</g>
</symbol><symbol id="icon-fullscreen" viewBox="0 0 64 64">


<g transform="matrix( 1, 0, 0, 1, 0,0) ">
<g transform="matrix( 1, 0, 0, 1, 0,0) ">
<use xlink:href="#fullscreen_0_Layer1_0_FILL"/>
</g>

<g transform="matrix( 1, 0, 0, 1, 0,0) ">
<use xlink:href="#fullscreen_0_Layer0_0_FILL"/>
</g>
</g>
</symbol><symbol id="icon-loader" viewBox="0 0 100 100"><g transform="rotate(0 50 50)">
  <rect x="47.5" y="22.5" rx="4.75" ry="2.25" width="5" height="15" fill="#cecece">
    <animate attributeName="opacity" values="1;0" times="0;1" dur="1s" begin="-0.9s" repeatCount="indefinite"/>
  </rect>
</g><g transform="rotate(36 50 50)">
  <rect x="47.5" y="22.5" rx="4.75" ry="2.25" width="5" height="15" fill="#cecece">
    <animate attributeName="opacity" values="1;0" times="0;1" dur="1s" begin="-0.8s" repeatCount="indefinite"/>
  </rect>
</g><g transform="rotate(72 50 50)">
  <rect x="47.5" y="22.5" rx="4.75" ry="2.25" width="5" height="15" fill="#cecece">
    <animate attributeName="opacity" values="1;0" times="0;1" dur="1s" begin="-0.7s" repeatCount="indefinite"/>
  </rect>
</g><g transform="rotate(108 50 50)">
  <rect x="47.5" y="22.5" rx="4.75" ry="2.25" width="5" height="15" fill="#cecece">
    <animate attributeName="opacity" values="1;0" times="0;1" dur="1s" begin="-0.6s" repeatCount="indefinite"/>
  </rect>
</g><g transform="rotate(144 50 50)">
  <rect x="47.5" y="22.5" rx="4.75" ry="2.25" width="5" height="15" fill="#cecece">
    <animate attributeName="opacity" values="1;0" times="0;1" dur="1s" begin="-0.5s" repeatCount="indefinite"/>
  </rect>
</g><g transform="rotate(180 50 50)">
  <rect x="47.5" y="22.5" rx="4.75" ry="2.25" width="5" height="15" fill="#cecece">
    <animate attributeName="opacity" values="1;0" times="0;1" dur="1s" begin="-0.4s" repeatCount="indefinite"/>
  </rect>
</g><g transform="rotate(216 50 50)">
  <rect x="47.5" y="22.5" rx="4.75" ry="2.25" width="5" height="15" fill="#cecece">
    <animate attributeName="opacity" values="1;0" times="0;1" dur="1s" begin="-0.3s" repeatCount="indefinite"/>
  </rect>
</g><g transform="rotate(252 50 50)">
  <rect x="47.5" y="22.5" rx="4.75" ry="2.25" width="5" height="15" fill="#cecece">
    <animate attributeName="opacity" values="1;0" times="0;1" dur="1s" begin="-0.2s" repeatCount="indefinite"/>
  </rect>
</g><g transform="rotate(288 50 50)">
  <rect x="47.5" y="22.5" rx="4.75" ry="2.25" width="5" height="15" fill="#cecece">
    <animate attributeName="opacity" values="1;0" times="0;1" dur="1s" begin="-0.1s" repeatCount="indefinite"/>
  </rect>
</g><g transform="rotate(324 50 50)">
  <rect x="47.5" y="22.5" rx="4.75" ry="2.25" width="5" height="15" fill="#cecece">
    <animate attributeName="opacity" values="1;0" times="0;1" dur="1s" begin="0s" repeatCount="indefinite"/>
  </rect>
</g></symbol><symbol id="icon-logout" viewBox="0 0 15 15">


<g transform="matrix( 1, 0, 0, 1, 0,0) ">
<g transform="matrix( 1, 0, 0, 1, 0,0) ">
<use xlink:href="#icon_logout_0_Layer1_0_FILL"/>
</g>

<g transform="matrix( 1, 0, 0, 1, 0,0) ">
<use xlink:href="#icon_logout_0_Layer0_0_FILL"/>
</g>
</g>
</symbol><symbol id="icon-menu" viewBox="0 0 64 64">


<g transform="matrix( 1, 0, 0, 1, 0,0) ">
<g transform="matrix( 1, 0, 0, 1, 0,0) ">
<use xlink:href="#menu_0_Layer1_0_FILL"/>
</g>

<g transform="matrix( 1, 0, 0, 1, 0,0) ">
<use xlink:href="#menu_0_Layer0_0_FILL"/>
</g>
</g>
</symbol><symbol id="icon-new-window" viewBox="0 0 64 64">


<g transform="matrix( 1, 0, 0, 1, 0,0) ">
<g transform="matrix( 1, 0, 0, 1, 0,0) ">
<use xlink:href="#new_window_0_Layer1_0_FILL"/>
</g>

<g transform="matrix( 1, 0, 0, 1, 0,0) ">
<use xlink:href="#new_window_0_Layer0_0_FILL"/>
</g>
</g>
</symbol><symbol id="icon-photos" viewBox="0 0 36 36">


<g transform="matrix( 1, 0, 0, 1, 0,0) ">
<g transform="matrix( 1, 0, 0, 1, 0,0) ">
<use xlink:href="#icon_photos_0_Layer1_0_FILL"/>
</g>

<g transform="matrix( 1, 0, 0, 1, 0,0) ">
<use xlink:href="#icon_photos_0_Layer0_0_FILL"/>
</g>
</g>
</symbol><symbol id="icon-pin" viewBox="0 0 64 64">


<g transform="matrix( 1, 0, 0, 1, 0,0) ">
<g transform="matrix( 1, 0, 0, 1, 0,0) ">
<use xlink:href="#pin_0_Layer1_0_FILL"/>
</g>

<g transform="matrix( 1, 0, 0, 1, 0,0) ">
<use xlink:href="#pin_0_Layer0_0_FILL"/>
</g>
</g>
</symbol><symbol id="icon-preview" viewBox="0 0 64 64">


<g transform="matrix( 1, 0, 0, 1, 0,0) ">
<g transform="matrix( 1, 0, 0, 1, 0,0) ">
<use xlink:href="#preview_0_Layer1_0_FILL"/>
</g>

<g transform="matrix( 1, 0, 0, 1, 0,0) ">
<use xlink:href="#preview_0_Layer0_0_FILL"/>
</g>
</g>
</symbol><symbol id="icon-save" viewBox="0 0 25 25">


<g transform="matrix( 1, 0, 0, 1, 0,0) ">
<g transform="matrix( 1, 0, 0, 1, 0,0) ">
<use xlink:href="#iconSave_0_Layer0_0_FILL"/>
</g>
</g>
</symbol><symbol id="icon-settings" viewBox="0 0 36 36">


<g transform="matrix( 1, 0, 0, 1, 0.3,0.3) ">
<g transform="matrix( 1, 0, 0, 1, 0,0) ">
<use xlink:href="#icon_settings_0_Layer1_0_FILL"/>
</g>

<g transform="matrix( 1, 0, 0, 1, 0,0) ">
<use xlink:href="#icon_settings_0_Layer0_0_FILL"/>
</g>
</g>
</symbol><symbol id="icon-sourcecode" viewBox="0 0 25 25">


<g transform="matrix( 1, 0, 0, 1, 0,0) ">
<g transform="matrix( 1, 0, 0, 1, 0,0) ">
<use xlink:href="#icon_sourcecode_0_Layer1_0_FILL"/>
</g>

<g transform="matrix( 1, 0, 0, 1, 0,0) ">
<use xlink:href="#icon_sourcecode_0_Layer0_0_FILL"/>
</g>
</g>
</symbol><symbol id="icon-upload" viewBox="0 0 25 25">


<g transform="matrix( 1, 0, 0, 1, 0,0) ">
<g transform="matrix( 1, 0, 0, 1, 0,0) ">
<use xlink:href="#iconUpload_0_Layer1_0_FILL"/>
</g>

<g transform="matrix( 1, 0, 0, 1, 0,0) ">
<use xlink:href="#iconUpload_0_Layer0_0_FILL"/>
</g>
</g>
</symbol><symbol id="loader" viewBox="0 0 100 100"><g transform="rotate(0 50 50)">
  <rect x="47.5" y="22.5" rx="4.75" ry="2.25" width="5" height="15" fill="#cecece">
    <animate attributeName="opacity" values="1;0" times="0;1" dur="1s" begin="-0.9s" repeatCount="indefinite"/>
  </rect>
</g><g transform="rotate(36 50 50)">
  <rect x="47.5" y="22.5" rx="4.75" ry="2.25" width="5" height="15" fill="#cecece">
    <animate attributeName="opacity" values="1;0" times="0;1" dur="1s" begin="-0.8s" repeatCount="indefinite"/>
  </rect>
</g><g transform="rotate(72 50 50)">
  <rect x="47.5" y="22.5" rx="4.75" ry="2.25" width="5" height="15" fill="#cecece">
    <animate attributeName="opacity" values="1;0" times="0;1" dur="1s" begin="-0.7s" repeatCount="indefinite"/>
  </rect>
</g><g transform="rotate(108 50 50)">
  <rect x="47.5" y="22.5" rx="4.75" ry="2.25" width="5" height="15" fill="#cecece">
    <animate attributeName="opacity" values="1;0" times="0;1" dur="1s" begin="-0.6s" repeatCount="indefinite"/>
  </rect>
</g><g transform="rotate(144 50 50)">
  <rect x="47.5" y="22.5" rx="4.75" ry="2.25" width="5" height="15" fill="#cecece">
    <animate attributeName="opacity" values="1;0" times="0;1" dur="1s" begin="-0.5s" repeatCount="indefinite"/>
  </rect>
</g><g transform="rotate(180 50 50)">
  <rect x="47.5" y="22.5" rx="4.75" ry="2.25" width="5" height="15" fill="#cecece">
    <animate attributeName="opacity" values="1;0" times="0;1" dur="1s" begin="-0.4s" repeatCount="indefinite"/>
  </rect>
</g><g transform="rotate(216 50 50)">
  <rect x="47.5" y="22.5" rx="4.75" ry="2.25" width="5" height="15" fill="#cecece">
    <animate attributeName="opacity" values="1;0" times="0;1" dur="1s" begin="-0.3s" repeatCount="indefinite"/>
  </rect>
</g><g transform="rotate(252 50 50)">
  <rect x="47.5" y="22.5" rx="4.75" ry="2.25" width="5" height="15" fill="#cecece">
    <animate attributeName="opacity" values="1;0" times="0;1" dur="1s" begin="-0.2s" repeatCount="indefinite"/>
  </rect>
</g><g transform="rotate(288 50 50)">
  <rect x="47.5" y="22.5" rx="4.75" ry="2.25" width="5" height="15" fill="#cecece">
    <animate attributeName="opacity" values="1;0" times="0;1" dur="1s" begin="-0.1s" repeatCount="indefinite"/>
  </rect>
</g><g transform="rotate(324 50 50)">
  <rect x="47.5" y="22.5" rx="4.75" ry="2.25" width="5" height="15" fill="#cecece">
    <animate attributeName="opacity" values="1;0" times="0;1" dur="1s" begin="0s" repeatCount="indefinite"/>
  </rect>
</g></symbol></svg>